HIERARCHY
ROOT mixamorig:Hips
{
	OFFSET -0.000008 104.274872 1.554316
	CHANNELS 6 Xposition Yposition Zposition Xrotation Yrotation Zrotation
	JOINT mixamorig:Spine
	{
		OFFSET -0.000005 10.181595 0.131519
		CHANNELS 6 Xposition Yposition Zposition Xrotation Yrotation Zrotation
		JOINT mixamorig:Spine1
		{
			OFFSET -0.000000 9.893959 -1.470707
			CHANNELS 6 Xposition Yposition Zposition Xrotation Yrotation Zrotation
			JOINT mixamorig:Spine2
			{
				OFFSET -0.000000 9.220757 -1.370641
				CHANNELS 6 Xposition Yposition Zposition Xrotation Yrotation Zrotation
				JOINT mixamorig:Neck
				{
					OFFSET 0.000001 16.740417 -2.049036
					CHANNELS 6 Xposition Yposition Zposition Xrotation Yrotation Zrotation
					JOINT mixamorig:Head
					{
						OFFSET 0.000000 9.617874 1.685006
						CHANNELS 6 Xposition Yposition Zposition Xrotation Yrotation Zrotation
						JOINT mixamorig:HeadTop_End
						{
							OFFSET 0.000002 22.037354 7.501101
							CHANNELS 6 Xposition Yposition Zposition Xrotation Yrotation Zrotation
							End Site
							{
								OFFSET 0.000168 2310.654297 -282.823242
							}
						}
					}
				}
				JOINT mixamorig:RightShoulder
				{
					OFFSET -4.569970 11.014908 -2.160885
					CHANNELS 6 Xposition Yposition Zposition Xrotation Yrotation Zrotation
					JOINT mixamorig:RightArm
					{
						OFFSET -10.592851 -0.524811 -2.232101
						CHANNELS 6 Xposition Yposition Zposition Xrotation Yrotation Zrotation
						JOINT mixamorig:RightForeArm
						{
							OFFSET -27.841511 0.000031 -0.000004
							CHANNELS 6 Xposition Yposition Zposition Xrotation Yrotation Zrotation
							JOINT mixamorig:RightHand
							{
								OFFSET -28.328831 -0.000015 0.000015
								CHANNELS 6 Xposition Yposition Zposition Xrotation Yrotation Zrotation
								JOINT mixamorig:RightHandThumb1
								{
									OFFSET -2.464806 -1.573990 2.681852
									CHANNELS 6 Xposition Yposition Zposition Xrotation Yrotation Zrotation
									JOINT mixamorig:RightHandThumb2
									{
										OFFSET -3.215179 -1.872803 1.924282
										CHANNELS 6 Xposition Yposition Zposition Xrotation Yrotation Zrotation
										JOINT mixamorig:RightHandThumb3
										{
											OFFSET -2.654831 -1.527969 1.512609
											CHANNELS 6 Xposition Yposition Zposition Xrotation Yrotation Zrotation
											JOINT mixamorig:RightHandThumb4
											{
												OFFSET -2.018814 -1.152008 1.108052
												CHANNELS 6 Xposition Yposition Zposition Xrotation Yrotation Zrotation
												End Site
												{
													OFFSET -188.809540 -114.533607 132.431396
												}
											}
										}
									}
								}
								JOINT mixamorig:RightHandIndex1
								{
									OFFSET -9.108284 -0.517868 2.259835
									CHANNELS 6 Xposition Yposition Zposition Xrotation Yrotation Zrotation
									JOINT mixamorig:RightHandIndex2
									{
										OFFSET -3.699989 0.000000 0.001215
										CHANNELS 6 Xposition Yposition Zposition Xrotation Yrotation Zrotation
										JOINT mixamorig:RightHandIndex3
										{
											OFFSET -2.850006 0.000031 -0.000522
											CHANNELS 6 Xposition Yposition Zposition Xrotation Yrotation Zrotation
											JOINT mixamorig:RightHandIndex4
											{
												OFFSET -2.772186 -0.000015 -0.000020
												CHANNELS 6 Xposition Yposition Zposition Xrotation Yrotation Zrotation
												End Site
												{
													OFFSET -277.218445 0.000000 -0.050231
												}
											}
										}
									}
								}
								JOINT mixamorig:RightHandMiddle1
								{
									OFFSET -9.532516 -0.000031 -0.000023
									CHANNELS 6 Xposition Yposition Zposition Xrotation Yrotation Zrotation
									JOINT mixamorig:RightHandMiddle2
									{
										OFFSET -3.700005 -0.000015 0.003713
										CHANNELS 6 Xposition Yposition Zposition Xrotation Yrotation Zrotation
										JOINT mixamorig:RightHandMiddle3
										{
											OFFSET -2.949974 0.000015 -0.002054
											CHANNELS 6 Xposition Yposition Zposition Xrotation Yrotation Zrotation
											JOINT mixamorig:RightHandMiddle4
											{
												OFFSET -2.946640 0.000000 -0.000156
												CHANNELS 6 Xposition Yposition Zposition Xrotation Yrotation Zrotation
												End Site
												{
													OFFSET -294.664337 0.000000 -0.113670
												}
											}
										}
									}
								}
								JOINT mixamorig:RightHandRing1
								{
									OFFSET -9.103600 -0.043076 -1.865134
									CHANNELS 6 Xposition Yposition Zposition Xrotation Yrotation Zrotation
									JOINT mixamorig:RightHandRing2
									{
										OFFSET -3.379288 0.000000 -0.001055
										CHANNELS 6 Xposition Yposition Zposition Xrotation Yrotation Zrotation
										JOINT mixamorig:RightHandRing3
										{
											OFFSET -2.889687 -0.000015 0.000379
											CHANNELS 6 Xposition Yposition Zposition Xrotation Yrotation Zrotation
											JOINT mixamorig:RightHandRing4
											{
												OFFSET -2.638809 -0.000015 0.000941
												CHANNELS 6 Xposition Yposition Zposition Xrotation Yrotation Zrotation
												End Site
												{
													OFFSET -263.880371 0.000000 0.516020
												}
											}
										}
									}
								}
								JOINT mixamorig:RightHandPinky1
								{
									OFFSET -8.076683 -0.486710 -3.806280
									CHANNELS 6 Xposition Yposition Zposition Xrotation Yrotation Zrotation
									JOINT mixamorig:RightHandPinky2
									{
										OFFSET -3.600014 -0.000015 -0.003747
										CHANNELS 6 Xposition Yposition Zposition Xrotation Yrotation Zrotation
										JOINT mixamorig:RightHandPinky3
										{
											OFFSET -2.099983 0.000000 -0.005739
											CHANNELS 6 Xposition Yposition Zposition Xrotation Yrotation Zrotation
											JOINT mixamorig:RightHandPinky4
											{
												OFFSET -2.115768 -0.000031 -0.003680
												CHANNELS 6 Xposition Yposition Zposition Xrotation Yrotation Zrotation
												End Site
												{
													OFFSET -211.577087 0.000000 -0.350686
												}
											}
										}
									}
								}
							}
						}
					}
				}
				JOINT mixamorig:LeftShoulder
				{
					OFFSET 4.570447 11.014725 -2.160855
					CHANNELS 6 Xposition Yposition Zposition Xrotation Yrotation Zrotation
					JOINT mixamorig:LeftArm
					{
						OFFSET 10.592371 -0.524597 -2.232119
						CHANNELS 6 Xposition Yposition Zposition Xrotation Yrotation Zrotation
						JOINT mixamorig:LeftForeArm
						{
							OFFSET 27.841532 -0.000031 0.000026
							CHANNELS 6 Xposition Yposition Zposition Xrotation Yrotation Zrotation
							JOINT mixamorig:LeftHand
							{
								OFFSET 28.328846 -0.000061 0.000022
								CHANNELS 6 Xposition Yposition Zposition Xrotation Yrotation Zrotation
								JOINT mixamorig:LeftHandThumb1
								{
									OFFSET 2.466141 -1.576172 2.681732
									CHANNELS 6 Xposition Yposition Zposition Xrotation Yrotation Zrotation
									JOINT mixamorig:LeftHandThumb2
									{
										OFFSET 3.217812 -1.872070 1.916482
										CHANNELS 6 Xposition Yposition Zposition Xrotation Yrotation Zrotation
										JOINT mixamorig:LeftHandThumb3
										{
											OFFSET 2.656029 -1.528778 1.514513
											CHANNELS 6 Xposition Yposition Zposition Xrotation Yrotation Zrotation
											JOINT mixamorig:LeftHandThumb4
											{
												OFFSET 2.020889 -1.154053 1.115139
												CHANNELS 6 Xposition Yposition Zposition Xrotation Yrotation Zrotation
												End Site
												{
													OFFSET 190.885437 -115.081749 130.048782
												}
											}
										}
									}
								}
								JOINT mixamorig:LeftHandIndex1
								{
									OFFSET 9.109314 -0.518021 2.259871
									CHANNELS 6 Xposition Yposition Zposition Xrotation Yrotation Zrotation
									JOINT mixamorig:LeftHandIndex2
									{
										OFFSET 3.699989 0.000000 -0.000322
										CHANNELS 6 Xposition Yposition Zposition Xrotation Yrotation Zrotation
										JOINT mixamorig:LeftHandIndex3
										{
											OFFSET 2.850006 0.000000 0.000352
											CHANNELS 6 Xposition Yposition Zposition Xrotation Yrotation Zrotation
											JOINT mixamorig:LeftHandIndex4
											{
												OFFSET 2.774864 -0.000031 -0.000027
												CHANNELS 6 Xposition Yposition Zposition Xrotation Yrotation Zrotation
												End Site
												{
													OFFSET 277.486267 0.000000 -0.009857
												}
											}
										}
									}
								}
								JOINT mixamorig:LeftHandMiddle1
								{
									OFFSET 9.533394 0.000061 0.000044
									CHANNELS 6 Xposition Yposition Zposition Xrotation Yrotation Zrotation
									JOINT mixamorig:LeftHandMiddle2
									{
										OFFSET 3.699989 -0.000015 -0.000231
										CHANNELS 6 Xposition Yposition Zposition Xrotation Yrotation Zrotation
										JOINT mixamorig:LeftHandMiddle3
										{
											OFFSET 2.949997 -0.000015 -0.000059
											CHANNELS 6 Xposition Yposition Zposition Xrotation Yrotation Zrotation
											JOINT mixamorig:LeftHandMiddle4
											{
												OFFSET 2.952896 0.000031 0.000063
												CHANNELS 6 Xposition Yposition Zposition Xrotation Yrotation Zrotation
												End Site
												{
													OFFSET 295.289337 0.000000 0.022810
												}
											}
										}
									}
								}
								JOINT mixamorig:LeftHandRing1
								{
									OFFSET 9.104523 -0.042999 -1.865074
									CHANNELS 6 Xposition Yposition Zposition Xrotation Yrotation Zrotation
									JOINT mixamorig:LeftHandRing2
									{
										OFFSET 3.150009 -0.000031 0.000043
										CHANNELS 6 Xposition Yposition Zposition Xrotation Yrotation Zrotation
										JOINT mixamorig:LeftHandRing3
										{
											OFFSET 2.949982 -0.000015 0.000040
											CHANNELS 6 Xposition Yposition Zposition Xrotation Yrotation Zrotation
											JOINT mixamorig:LeftHandRing4
											{
												OFFSET 2.644348 0.000000 0.000057
												CHANNELS 6 Xposition Yposition Zposition Xrotation Yrotation Zrotation
												End Site
												{
													OFFSET 264.434631 0.000000 0.012105
												}
											}
										}
									}
								}
								JOINT mixamorig:LeftHandPinky1
								{
									OFFSET 8.077789 -0.486847 -3.806259
									CHANNELS 6 Xposition Yposition Zposition Xrotation Yrotation Zrotation
									JOINT mixamorig:LeftHandPinky2
									{
										OFFSET 3.599953 0.000031 0.014727
										CHANNELS 6 Xposition Yposition Zposition Xrotation Yrotation Zrotation
										JOINT mixamorig:LeftHandPinky3
										{
											OFFSET 2.100021 0.000015 0.007705
											CHANNELS 6 Xposition Yposition Zposition Xrotation Yrotation Zrotation
											JOINT mixamorig:LeftHandPinky4
											{
												OFFSET 2.125504 0.000031 0.007517
												CHANNELS 6 Xposition Yposition Zposition Xrotation Yrotation Zrotation
												End Site
												{
													OFFSET 212.550781 0.000000 0.625752
												}
											}
										}
									}
								}
							}
						}
					}
				}
			}
		}
	}
	JOINT mixamorig:RightUpLeg
	{
		OFFSET -8.207787 -6.751648 -1.599560
		CHANNELS 6 Xposition Yposition Zposition Xrotation Yrotation Zrotation
		JOINT mixamorig:RightLeg
		{
			OFFSET -0.000002 -44.370117 0.345942
			CHANNELS 6 Xposition Yposition Zposition Xrotation Yrotation Zrotation
			JOINT mixamorig:RightFoot
			{
				OFFSET 0.000003 -44.423679 -3.043532
				CHANNELS 6 Xposition Yposition Zposition Xrotation Yrotation Zrotation
				JOINT mixamorig:RightToeBase
				{
					OFFSET -0.000002 -8.728671 10.710558
					CHANNELS 6 Xposition Yposition Zposition Xrotation Yrotation Zrotation
					JOINT mixamorig:RightToe_End
					{
						OFFSET -0.000001 -0.000679 9.278119
						CHANNELS 6 Xposition Yposition Zposition Xrotation Yrotation Zrotation
						End Site
						{
							OFFSET 0.000000 -0.067690 927.812134
						}
					}
				}
			}
		}
	}
	JOINT mixamorig:LeftUpLeg
	{
		OFFSET 8.207793 -6.751686 -1.599556
		CHANNELS 6 Xposition Yposition Zposition Xrotation Yrotation Zrotation
		JOINT mixamorig:LeftLeg
		{
			OFFSET -0.000004 -44.370014 0.346954
			CHANNELS 6 Xposition Yposition Zposition Xrotation Yrotation Zrotation
			JOINT mixamorig:LeftFoot
			{
				OFFSET -0.000001 -44.423672 -3.044401
				CHANNELS 6 Xposition Yposition Zposition Xrotation Yrotation Zrotation
				JOINT mixamorig:LeftToeBase
				{
					OFFSET -0.000002 -8.728669 10.710558
					CHANNELS 6 Xposition Yposition Zposition Xrotation Yrotation Zrotation
					JOINT mixamorig:LeftToe_End
					{
						OFFSET -0.000003 -0.000679 9.278133
						CHANNELS 6 Xposition Yposition Zposition Xrotation Yrotation Zrotation
						End Site
						{
							OFFSET 0.000000 -0.068021 927.813477
						}
					}
				}
			}
		}
	}
}
MOTION
Frames: 3
Frame Time: 0.033333
0.000006 104.270477 1.554256 0.000010 0.000003 -0.000113 -0.000005 10.181587 0.131522 0.000001 -0.000003 0.000084 -0.000000 9.893967 -1.470711 0.000001 0.000000 -0.000000 -0.000000 9.220802 -1.370642 0.000000 -0.000000 -0.000000 0.000001 16.740433 -2.049030 0.000000 -0.000000 -0.000000 0.000000 9.617859 1.685014 0.000000 0.000000 0.000000 0.000002 22.037384 7.501101 0.000000 -0.000000 0.000000 -4.569968 11.014880 -2.160881 0.000008 0.000001 -0.000038 -10.592778 -0.524834 -2.231740 45.424911 72.882223 -34.348181 -27.841475 0.000016 0.000595 45.736511 109.266805 -61.438624 -28.328829 0.000021 0.000022 -0.000321 -0.000045 0.000007 -2.464389 -1.573930 2.682332 -30.074358 -142.066910 20.710986 -3.214825 -1.872449 1.924648 125.771868 0.961190 137.457188 -2.654757 -1.527642 1.512975 -46.706801 -207.088918 -93.020244 -2.018842 -1.151995 1.108059 -0.000002 -0.000003 0.000002 -9.108404 -0.517626 2.260241 118.167491 22.691171 -37.125903 -3.700092 0.000239 0.001648 -239.726089 20.651150 -35.166653 -2.850105 0.000298 -0.000126 -239.480366 16.088596 -27.787327 -2.772171 -0.000001 -0.000035 -0.000002 0.000001 -0.000000 -9.532615 0.000224 0.000345 115.834148 17.854089 -28.362926 -3.700081 0.000290 0.004121 -240.084756 14.567137 -24.755937 -2.950076 0.000298 -0.001648 121.359088 12.584704 -22.202051 -2.946625 0.000015 -0.000159 -0.000002 0.000000 0.000000 -9.103689 -0.042774 -1.864770 115.871796 16.102084 -385.378234 -3.379315 0.000319 -0.000705 -243.000427 7.874644 -12.844561 -2.889747 0.000306 0.000762 119.609658 5.722989 -9.896692 -2.638802 -0.000017 0.000943 0.000002 -0.000000 0.000000 -8.076747 -0.486389 -3.805897 114.534008 15.132899 -23.122209 -3.600025 0.000291 -0.003432 116.084802 5.254622 -7.866581 -2.100003 0.000309 -0.005360 117.582417 2.917583 -4.465012 -2.115785 -0.000026 -0.003699 -0.000002 0.000001 -0.000002 4.570446 11.014691 -2.160851 -0.000018 0.000010 -0.000021 10.592505 -0.524559 -2.232371 50.602700 -68.052276 35.403363 27.841749 -0.000046 -0.000099 50.934059 -106.178822 64.756586 28.328831 -0.000012 0.000019 0.000020 -0.000089 0.000000 2.466110 -1.576170 2.681882 58.104119 115.211795 -107.719221 3.217706 -1.872067 1.916544 -184.210011 50.985392 131.313037 2.655754 -1.528786 1.514647 -38.300149 -205.477280 357.837299 2.020895 -1.154068 1.115140 -0.000002 0.000003 0.000001 9.109474 -0.517812 2.259860 -207.282048 -16.050680 -299.738508 3.700117 0.000162 -0.000381 -51.742545 -154.620484 229.848734 2.850114 0.000182 0.000282 -248.715765 -29.260216 41.795994 2.774880 -0.000046 -0.000026 -0.000001 -0.000000 -0.000000 9.533512 0.000345 -0.000006 -220.654411 -11.762648 31.055648 3.700120 0.000173 -0.000324 -255.927844 -26.282985 33.312373 2.950090 0.000058 -0.000096 -273.408784 -45.212806 42.846156 2.952889 -0.000008 0.000070 0.000002 0.000005 -0.000000 9.104640 -0.042726 -1.865132 -219.586962 -11.315071 30.785637 3.150070 0.000217 -0.000086 -83.835122 194.114523 195.704222 2.950025 0.000025 0.000062 46.372292 -34.096823 14.966442 2.644331 0.000034 0.000074 -0.000001 -0.000001 0.000001 8.077888 -0.486570 -3.806306 -215.443059 -9.864090 32.007277 3.599950 0.000398 0.014633 132.596839 1.124415 -1.617305 2.099945 0.000435 0.007626 143.083174 5.489394 -15.337786 2.125517 -0.000015 0.007524 -0.000002 0.000001 0.000001 -8.207786 -6.751667 -1.599560 -0.077001 -0.000003 0.000080 -0.000002 -44.370110 0.345938 0.153719 -0.000000 -0.000000 0.000000 -44.423679 -3.043532 -0.076700 0.000000 -0.000002 -0.000006 -8.728667 10.710559 -0.000009 -0.000000 -0.000000 -0.000001 -0.000679 9.278123 0.000000 -0.000000 -0.000000 8.207792 -6.751710 -1.599556 -0.074518 -0.000003 0.000081 -0.000002 -44.370014 0.346960 0.148822 0.000002 0.000000 -0.000001 -44.423664 -3.044403 -0.074314 0.000000 -0.000002 -0.000004 -8.728671 10.710558 0.000007 -0.000000 -0.000000 0.000000 -0.000680 9.278137 -0.000000 0.000000 -0.000001 
0.000006 104.270477 1.554256 0.000010 0.000003 -0.000113 -0.000005 10.181587 0.131522 0.000001 -0.000003 0.000084 -0.000000 9.893967 -1.470711 0.000001 0.000000 -0.000000 -0.000000 9.220802 -1.370642 0.000000 -0.000000 -0.000000 0.000001 16.740433 -2.049030 0.000000 -0.000000 -0.000000 0.000000 9.617859 1.685014 0.000000 0.000000 0.000000 0.000002 22.037384 7.501101 0.000000 -0.000000 0.000000 -4.569968 11.014880 -2.160881 0.000008 0.000001 -0.000038 -10.592783 -0.524827 -2.231744 38.739173 72.452434 -28.885242 -27.841476 0.000027 0.000589 40.002830 106.562412 -52.025384 -28.328829 0.000006 0.000031 -0.000321 -0.000044 0.000007 -2.464399 -1.573784 2.682328 -47.136860 -159.628542 -8.384090 -3.215117 -1.872428 1.924609 137.404527 32.080135 72.280607 -2.654938 -1.527921 1.513089 -11.406384 -205.017021 -207.870127 -2.018823 -1.152002 1.108069 -0.000003 -0.000005 0.000000 -9.108418 -0.517639 2.260186 103.084070 26.661314 -33.286363 -3.700112 0.000267 0.001555 -265.690097 22.743987 -24.443166 -2.850095 0.000335 -0.000275 -272.649786 18.539288 -17.713771 -2.772170 -0.000001 -0.000001 -0.000000 -0.000002 -0.000000 -9.532628 0.000237 0.000286 98.711431 20.949452 -24.479825 -3.700078 0.000321 0.003949 -268.208087 12.355152 -12.646654 -2.950066 0.000331 -0.001831 89.275811 11.854689 -11.699791 -2.946632 -0.000000 -0.000144 -0.000000 0.000000 -0.000000 -9.103712 -0.042771 -1.864823 97.072035 19.660172 -382.137965 -3.379276 0.000345 -0.000830 -269.490086 1.674475 -1.705046 -2.889707 0.000359 0.000577 88.938776 -0.968827 0.911591 -2.638816 -0.000012 0.000914 -0.000001 -0.000001 -0.000000 -8.076744 -0.486413 -3.805930 101.079539 18.547524 -22.255507 -3.599989 0.000320 -0.003549 96.812775 0.364121 -0.056198 -2.099968 0.000375 -0.005504 95.039897 -2.921372 3.397933 -2.115769 -0.000041 -0.003685 0.000000 0.000001 -0.000003 4.570446 11.014691 -2.160851 -0.000018 0.000010 -0.000021 10.592500 -0.524550 -2.232366 44.669342 -67.723177 30.824114 27.841774 -0.000035 -0.000121 37.303102 -100.053727 43.864131 28.328831 -0.000030 0.000018 0.000019 -0.000088 0.000000 2.466029 -1.576189 2.681891 -32.521563 152.759995 -20.962872 3.217828 -1.872015 1.916547 -183.270942 9.857223 93.164982 2.655956 -1.528790 1.514674 -36.590905 -163.771585 310.335109 2.020887 -1.154055 1.115135 0.000003 0.000004 0.000004 9.109435 -0.517919 2.259808 -250.386266 -34.423904 -312.591284 3.700083 0.000097 -0.000416 -96.139236 -150.653264 206.487643 2.850032 0.000142 0.000207 -283.402608 -20.044015 15.888748 2.774882 -0.000014 -0.000023 -0.000003 0.000005 -0.000001 9.533502 0.000221 -0.000067 -257.301805 -23.924150 29.663771 3.700045 0.000165 -0.000389 -274.179585 -12.906631 12.002233 2.950035 0.000155 -0.000206 -282.585690 -8.591978 6.892110 2.952878 -0.000032 0.000078 -0.000001 0.000000 0.000001 9.104617 -0.042825 -1.865204 -256.996468 -20.286365 25.355474 3.150017 0.000237 -0.000111 -89.704549 182.988240 183.005288 2.949983 0.000176 -0.000122 82.180611 1.493491 -1.301173 2.644303 0.000029 0.000076 0.000001 -0.000002 -0.000000 8.077865 -0.486639 -3.806375 -251.314324 -13.730127 19.845540 3.599912 0.000300 0.014523 101.172389 7.527643 -8.711211 2.099944 0.000249 0.007506 94.848091 11.302972 -11.948280 2.125505 -0.000016 0.007512 -0.000001 -0.000000 0.000002 -8.207786 -6.751667 -1.599560 -0.077001 -0.000003 0.000080 -0.000002 -44.370110 0.345938 0.153719 -0.000000 -0.000000 0.000000 -44.423679 -3.043532 -0.076700 0.000000 -0.000002 -0.000006 -8.728667 10.710559 -0.000009 -0.000000 -0.000000 -0.000001 -0.000679 9.278123 0.000000 -0.000000 -0.000000 8.207792 -6.751710 -1.599556 -0.074518 -0.000003 0.000081 -0.000002 -44.370014 0.346960 0.148822 0.000002 0.000000 -0.000001 -44.423664 -3.044403 -0.074314 0.000000 -0.000002 -0.000004 -8.728671 10.710558 0.000007 -0.000000 -0.000000 0.000000 -0.000680 9.278137 -0.000000 0.000000 -0.000001 
0.000006 104.270477 1.554256 0.000010 0.000003 -0.000113 -0.000005 10.181587 0.131522 0.000001 -0.000003 0.000084 -0.000000 9.893967 -1.470711 0.000001 0.000000 -0.000000 -0.000000 9.220802 -1.370642 0.000000 -0.000000 -0.000000 0.000001 16.740433 -2.049030 0.000000 -0.000000 -0.000000 0.000000 9.617859 1.685014 0.000000 0.000000 0.000000 0.000002 22.037384 7.501101 0.000000 -0.000000 0.000000 -4.569968 11.014880 -2.160881 0.000008 0.000001 -0.000038 -10.592787 -0.524822 -2.231746 34.927788 71.542564 -25.541911 -27.841476 0.000003 0.000591 24.174654 104.245004 -30.785647 -28.328829 0.000021 0.000022 -0.000322 -0.000044 0.000007 -2.464924 -1.573766 2.682263 -15.794165 -213.159822 -175.677574 -3.215247 -1.872725 1.924767 158.894475 22.054005 -45.370201 -2.654937 -1.527948 1.513127 -16.298225 -201.676963 -224.314587 -2.018818 -1.152012 1.108062 -0.000002 -0.000001 -0.000002 -9.108386 -0.517569 2.259999 70.472143 15.834446 -11.254233 -3.700058 0.000296 0.001389 -291.634406 11.831482 -8.034868 -2.850054 0.000310 -0.000409 -293.604971 7.251691 -4.747963 -2.772172 -0.000029 -0.000021 -0.000000 0.000001 0.000000 -9.532576 0.000265 0.000102 70.213259 12.604727 -8.977304 -3.700043 0.000306 0.003869 -293.445636 5.555726 -3.590205 -2.950020 0.000294 -0.001979 63.497632 5.364215 -3.316723 -2.946623 0.000029 -0.000152 0.000000 -0.000000 -0.000001 -9.103666 -0.042729 -1.864981 73.754978 9.932027 -367.427950 -3.379275 0.000318 -0.000971 -289.510573 0.859738 -0.618282 -2.889708 0.000341 0.000466 68.629010 0.817042 -0.585989 -2.638815 -0.000016 0.000950 0.000000 -0.000002 -0.000001 -8.076703 -0.486327 -3.806084 78.613845 7.400353 -5.950287 -3.599988 0.000291 -0.003593 77.385914 -1.980582 1.827702 -2.099978 0.000308 -0.005597 77.087004 -1.453906 1.314108 -2.115774 -0.000057 -0.003665 -0.000001 0.000002 -0.000004 4.570446 11.014691 -2.160851 -0.000018 0.000010 -0.000021 10.592493 -0.524577 -2.232363 42.146010 -67.025582 28.629054 27.841778 -0.000017 -0.000136 33.742671 -97.271265 38.010727 28.328836 -0.000029 0.000026 0.000019 -0.000088 0.000001 2.466235 -1.575929 2.681690 -16.575826 201.865175 -141.451674 3.217841 -1.871947 1.916470 -226.171210 -28.701500 66.388004 2.656099 -1.528719 1.514528 -58.588584 -145.294298 243.440947 2.020891 -1.154073 1.115156 0.000000 0.000002 0.000003 9.109370 -0.517900 2.259744 -287.976485 -17.699716 -347.095843 3.700028 0.000104 -0.000469 -111.485291 -168.290219 188.001572 2.850037 0.000127 0.000203 -295.194082 -7.426232 4.716522 2.774888 -0.000029 -0.000026 0.000001 0.000000 -0.000000 9.533445 0.000176 -0.000075 -285.500760 -16.138062 12.298902 3.700022 0.000123 -0.000390 -285.875191 -8.788970 6.641626 2.950029 0.000128 -0.000211 -286.016794 -8.182478 6.170709 2.952865 -0.000016 0.000063 -0.000001 0.000000 0.000003 9.104570 -0.042860 -1.865225 -284.071010 -13.642149 10.665991 3.150046 0.000187 -0.000125 -101.896997 187.420077 186.023986 2.949987 0.000176 -0.000116 79.654950 -5.789868 4.831252 2.644310 0.000011 0.000063 -0.000001 -0.000003 -0.000003 8.077829 -0.486714 -3.806411 -280.952291 -13.917580 11.975415 3.599988 0.000196 0.014562 83.011298 -9.393468 8.747843 2.100020 0.000179 0.007514 84.227557 -6.714691 6.479533 2.125489 -0.000033 0.007515 -0.000000 -0.000001 -0.000000 -8.207786 -6.751667 -1.599560 -0.077001 -0.000003 0.000080 -0.000002 -44.370110 0.345938 0.153719 -0.000000 -0.000000 0.000000 -44.423679 -3.043532 -0.076700 0.000000 -0.000002 -0.000006 -8.728667 10.710559 -0.000009 -0.000000 -0.000000 -0.000001 -0.000679 9.278123 0.000000 -0.000000 -0.000000 8.207792 -6.751710 -1.599556 -0.074518 -0.000003 0.000081 -0.000002 -44.370014 0.346960 0.148822 0.000002 0.000000 -0.000001 -44.423664 -3.044403 -0.074314 0.000000 -0.000002 -0.000004 -8.728671 10.710558 0.000007 -0.000000 -0.000000 0.000000 -0.000680 9.278137 -0.000000 0.000000 -0.000001 
